<?xml version="1.0" standalone="no"?>
<!DOCTYPE svg PUBLIC "-//W3C//DTD SVG 20010904//EN"
 "http://www.w3.org/TR/2001/REC-SVG-20010904/DTD/svg10.dtd">
<svg version="1.0" xmlns="http://www.w3.org/2000/svg"
 width=" 10.000000pt" height="10.000000pt" viewBox="0 0 626.000000 626.000000"
 preserveAspectRatio="xMidYMid meet">

<g transform="translate(0.000000,626.000000) scale(0.100000,-0.100000)"
fill="#000000" stroke="none">
<path d="M3045 4919 c-55 -26 -166 -77 -470 -214 -143 -65 -506 -229 -807
-366 -302 -137 -571 -258 -598 -270 l-51 -22 3 -66 3 -66 365 -162 365 -162 3
-192 2 -192 -26 -40 c-35 -54 -46 -149 -42 -364 2 -136 6 -172 19 -191 17 -23
17 -22 29 50 28 176 81 329 129 372 l21 19 -21 23 c-26 27 -34 91 -17 124 7
13 29 35 48 48 l35 23 6 162 c7 198 17 235 76 299 88 93 321 215 633 331 192
71 228 81 248 68 16 -10 24 -6 -143 -66 -459 -163 -711 -311 -754 -442 -7 -21
-15 -108 -18 -194 l-6 -156 30 -18 c71 -42 85 -147 26 -190 -11 -8 -9 -17 13
-45 73 -97 123 -311 140 -602 l7 -116 106 -31 c202 -58 382 -86 626 -96 l150
-6 170 155 170 155 14 -27 c19 -37 58 -72 80 -72 10 0 21 -8 23 -18 4 -15 12
-18 37 -14 20 3 31 0 31 -8 0 -9 10 -11 31 -6 18 3 37 1 44 -4 9 -7 21 -7 39
1 20 9 29 9 40 0 12 -10 19 -10 37 2 14 11 28 13 43 7 16 -6 29 -3 45 9 13 10
34 16 46 13 16 -3 28 3 37 17 8 13 23 21 40 21 17 0 31 8 38 20 6 12 21 20 35
20 13 0 28 7 33 16 8 15 19 12 93 -26 95 -48 94 -47 103 -76 6 -20 -2 -24
-118 -54 -68 -18 -129 -36 -134 -39 -7 -4 -4 -27 9 -65 40 -123 18 -220 -68
-301 -38 -35 -44 -45 -28 -45 34 0 88 40 233 172 153 140 172 169 172 261 0
65 -22 152 -55 217 -23 45 -29 50 -59 50 -22 0 -36 6 -40 16 -10 25 -7 32 13
39 12 4 18 12 14 21 -3 7 -2 22 3 32 12 28 11 75 -4 112 -29 75 -37 90 -49 90
-6 0 -15 9 -18 20 -4 13 -15 20 -30 20 -15 0 -26 7 -30 19 -5 16 -11 18 -35
11 -22 -6 -30 -5 -34 7 -4 11 -14 13 -31 9 -15 -4 -34 -1 -45 7 -17 12 -13 18
63 86 45 41 109 100 143 132 l60 58 3 175 2 175 -35 -1 c-21 -1 -33 -5 -29
-11 4 -6 0 -8 -11 -4 -9 4 -15 3 -12 -2 7 -11 -73 -42 -88 -34 -6 3 -8 3 -4
-2 9 -10 -158 -86 -189 -87 -13 0 -20 -4 -18 -9 7 -11 -32 -22 -46 -13 -7 4
-9 3 -6 -3 5 -8 -122 -73 -153 -79 -3 0 -27 -11 -55 -24 -27 -13 -58 -23 -68
-22 -9 0 -15 -3 -13 -7 7 -10 -42 -33 -54 -26 -5 3 -10 0 -12 -5 -2 -6 -10
-12 -18 -14 -8 -1 -39 -14 -68 -29 -29 -15 -58 -25 -64 -21 -6 4 -8 3 -5 -2 5
-8 -91 -51 -101 -45 -1 1 -10 -5 -18 -14 -10 -10 -25 -13 -38 -10 -14 4 -17 3
-8 -3 9 -6 3 -12 -20 -19 -18 -6 -50 -18 -70 -27 l-38 -16 0 58 0 59 87 39
c47 21 89 39 92 40 7 1 67 27 136 59 86 40 388 171 445 195 30 12 66 28 80 35
14 7 79 36 145 65 66 28 158 69 205 90 75 34 197 87 285 125 17 8 57 26 90 41
33 15 66 27 73 25 6 -1 12 3 12 10 0 6 7 8 16 5 8 -3 12 -2 9 4 -3 6 -1 10 5
10 7 0 45 16 86 35 41 19 98 44 127 55 29 11 62 26 72 34 18 13 17 14 -12 30
-17 8 -111 51 -210 95 -98 43 -299 134 -448 201 -148 67 -394 177 -545 245
-315 141 -488 218 -545 245 -124 58 -199 90 -209 89 -6 0 -29 -9 -51 -20z
m1052 -2078 c55 -26 77 -60 70 -112 -15 -110 -177 -211 -342 -213 -118 -1
-178 37 -178 114 0 147 290 283 450 211z"/>
<path d="M3615 1440 c-3 -5 -1 -10 4 -10 6 0 11 5 11 10 0 6 -2 10 -4 10 -3 0
-8 -4 -11 -10z"/>
<path d="M3590 1412 c0 -7 -4 -11 -9 -9 -9 2 -159 -132 -289 -261 -108 -106
-128 -117 -223 -117 -67 0 -83 4 -150 37 -42 21 -96 56 -122 79 -64 56 -60 34
6 -28 81 -77 239 -124 366 -109 52 6 335 106 403 143 18 9 36 16 41 15 4 -1 7
3 7 9 0 6 7 9 15 5 8 -3 15 -2 15 2 0 4 27 15 60 26 33 10 58 22 55 26 -7 12
6 41 15 35 5 -3 11 -1 14 4 9 15 -22 21 -51 10 -14 -5 -32 -8 -40 -5 -17 7
-17 33 0 39 19 8 -11 26 -34 20 -13 -4 -19 0 -19 11 0 21 -53 22 -70 1 -7 -8
-17 -15 -23 -15 -6 0 0 11 13 25 13 14 20 25 16 25 -5 0 -3 7 4 15 7 9 10 18
6 22 -3 3 -6 1 -6 -5z m-33 -54 c-12 -24 -22 -44 -23 -46 -1 -1 -9 0 -18 4
-14 5 -10 13 21 45 21 21 39 39 40 39 1 0 -8 -19 -20 -42z m36 -38 c-3 -12 -8
-19 -11 -16 -5 6 5 36 12 36 2 0 2 -9 -1 -20z"/>
<path d="M3700 1290 c0 -5 7 -10 15 -10 8 0 15 5 15 10 0 6 -7 10 -15 10 -8 0
-15 -4 -15 -10z"/>
<path d="M3805 1290 c3 -5 14 -10 23 -10 15 0 15 2 2 10 -20 13 -33 13 -25 0z"/>
<path d="M3785 1250 l-20 -9 20 0 c11 0 29 4 40 9 l20 9 -20 0 c-11 0 -29 -4
-40 -9z"/>
</g>
</svg>
